<svg xmlns="http://www.w3.org/2000/svg" version="1.1" width="512.000000pt" height="512.000000pt"><svg version="1.0" xmlns="http://www.w3.org/2000/svg" width="512.000000pt" height="512.000000pt" viewBox="0 0 512.000000 512.000000" preserveAspectRatio="xMidYMid meet">
<metadata>
Created by potrace 1.14, written by Peter Selinger 2001-2017
</metadata>
<g transform="translate(0.000000,512.000000) scale(0.100000,-0.100000)" fill="#000000" stroke="none">
<path d="M1395 5113 c-275 -33 -515 -120 -729 -266 -123 -84 -314 -275 -395
-397 -118 -177 -196 -363 -244 -578 -21 -97 -21 -105 -24 -1985 l-4 -1888
1883 4 c1036 1 1894 6 1908 10 13 3 41 9 62 12 21 3 73 15 115 26 516 133 939
541 1088 1051 63 212 58 72 62 2136 l4 1882 -1848 -2 c-1016 0 -1861 -3 -1878
-5z m1030 -1228 l0 -585 -185 4 c-102 3 -233 5 -292 5 l-107 1 -3 81 -3 81
-263 -199 -263 -198 3 -135 3 -135 550 0 550 0 0 -1082 0 -1082 -95 51 c-52
28 -112 62 -132 75 -21 12 -39 23 -42 23 -2 0 -62 32 -132 71 -71 39 -158 87
-194 107 -36 20 -87 48 -113 64 -26 15 -50 28 -52 28 -2 0 -117 63 -255 140
-138 77 -253 140 -255 140 -3 0 -39 20 -81 45 -41 25 -77 45 -79 45 -2 0 -50
26 -107 57 l-103 58 0 320 0 320 255 0 255 0 2 -125 c1 -69 2 -137 2 -153 1
-25 15 -34 219 -133 119 -59 251 -123 292 -144 l75 -38 0 367 0 366 -540 0
-540 0 0 537 c0 343 4 541 10 547 6 5 80 55 165 111 85 56 164 108 175 116 11
8 101 67 200 132 99 65 293 193 430 283 138 91 320 211 405 267 156 102 178
117 208 139 10 7 22 13 27 13 7 0 10 -198 10 -585z m516 459 l277 -127 -2
-823 c0 -453 2 -820 5 -816 4 4 26 67 50 140 36 111 47 132 64 133 39 1 310 1
335 0 20 -1 40 -23 100 -112 l75 -111 3 582 c2 459 5 581 15 577 6 -3 118 -63
247 -134 l235 -129 0 -914 0 -913 -269 -154 c-148 -84 -272 -153 -275 -153 -7
0 -33 53 -243 499 l-45 93 -47 -148 c-26 -82 -52 -160 -57 -174 -4 -14 -40
-126 -79 -250 -151 -481 -150 -477 -173 -488 -20 -10 -72 -39 -222 -122 -33
-18 -80 -44 -105 -58 -25 -13 -77 -42 -116 -63 l-71 -39 0 1915 c0 1370 3
1915 11 1915 6 0 135 -57 287 -126z"/>
</g>
</svg><style>@media (prefers-color-scheme: light) { :root { filter: none; } }
@media (prefers-color-scheme: dark) { :root { filter: invert(100%); } }
</style></svg>